{"title":"Housefull-3 (2016) 1080p Blu-ray x264 AC3 5.1 Subs -DDR","uid":15962405,"size":4718544362,"categoryP":"video","categoryS":"hd___movies","magnet":"?xt=urn:btih:b80bf8082334129bdd764f00bd2f466e4aef5987&amp;dn=Housefull-3+%282016%29+1080p+Blu-ray+x264+AC3+5.1+Subs+-DDR&amp;tr=udp%3A%2F%2Ftracker.leechers-paradise.org%3A6969&amp;tr=udp%3A%2F%2Fzer0day.ch%3A1337&amp;tr=udp%3A%2F%2Fopen.demonii.com%3A1337&amp;tr=udp%3A%2F%2Ftracker.coppersurfer.tk%3A6969&amp;tr=udp%3A%2F%2Fexodus.desync.com%3A6969","seeders":20,"leechers":50,"uploader":"SaM","files":3,"time":1475684308,"description":"\n** 2016**\r\n\r\n** 1080p / Blu-ray Rip / x264\r\n\r\nHindi AC3 5.1 **\r\n\r\n** English &amp; Arabic Subtitle(s) **\r\n\r\n\r\n\r\n[ SCREENS ]\r\n \nhttps://extraimago.com/image/wJyW \nhttps://extraimago.com/image/wJyA \nhttps://extraimago.com/image/wJyv \nhttps://extraimago.com/image/wJyu \nhttps://extraimago.com/image/wJyV \nhttps://extraimago.com/image/wJy6 \nhttps://extraimago.com/image/wJyx \nhttps://extraimago.com/image/wJyt \nhttps://extraimago.com/image/wJyo \nhttps://extraimago.com/image/wJyk \nhttps://extraimago.com/image/wJyH \nhttps://extraimago.com/image/wJyF\r\n\r\nSource = Blu-Ray BD50 @ DDR\r\n\r\nFormat : Matroska\r\nFormat version : Version 4 / Version 2\r\nFile size : 4.36 GiB\r\nDuration : 2 h 14 min\r\nOverall bit rate : 4 649 kb/s\r\n\r\n\r\nVideo\r\nID : 1\r\nFormat : AVC\r\nFormat/Info : Advanced Video Codec\r\nFormat profile :   \r\nFormat settings, CABAC : Yes\r\nFormat settings, ReFrames : 5 frames\r\nCodec ID : V_MPEG4/ISO/AVC\r\nDuration : 2 h 14 min\r\nBit rate : 4 000 kb/s\r\nWidth : 1 920 pixels\r\nHeight : 804 pixels\r\nDisplay aspect ratio : 2.40:1\r\nFrame rate mode : Constant\r\nFrame rate : 24.000 FPS\r\nColor space : YUV\r\nChroma subsampling : 4:2:0\r\nBit depth : 8 bits\r\nScan type : Progressive\r\nBits/(Pixel*Frame) : 0.108\r\nStream size : 3.75 GiB (86%)\r\nDefault : Yes\r\nForced : No\r\nColor range : Limited\r\nColor primaries : BT.709\r\nTransfer characteristics : BT.709\r\nMatrix coefficients : BT.709\r\n\r\nAudio\r\nID : 2\r\nFormat : AC-3\r\nFormat/Info : Audio Coding 3\r\nMode extension : CM (complete main)\r\nFormat settings, Endianness : Big\r\nCodec ID : A_AC3\r\nDuration : 2 h 14 min\r\nBit rate mode : Constant\r\nBit rate : 640 kb/s\r\nChannel(s) : 6 channels\r\nChannel positions : Front: L C R, Side: L R, LFE\r\nSampling rate : 48.0 kHz\r\nFrame rate : 31.250 FPS (1536 spf)\r\nCompression mode : Lossy\r\nStream size : 615 MiB (14%)\r\nLanguage : Hindi\r\nDefault : Yes\r\nForced : No\r\n\r\n\r\nChapters = YES","torrent":{"xt":"urn:btih:b80bf8082334129bdd764f00bd2f466e4aef5987","amp;dn":"Housefull-3+%282016%29+1080p+Blu-ray+x264+AC3+5.1+Subs+-DDR","amp;tr":["udp%3A%2F%2Ftracker.leechers-paradise.org%3A6969","udp%3A%2F%2Fzer0day.ch%3A1337","udp%3A%2F%2Fopen.demonii.com%3A1337","udp%3A%2F%2Ftracker.coppersurfer.tk%3A6969","udp%3A%2F%2Fexodus.desync.com%3A6969"],"infoHash":"b80bf8082334129bdd764f00bd2f466e4aef5987","infoHashBuffer":{"type":"Buffer","data":[184,11,248,8,35,52,18,155,221,118,79,0,189,47,70,110,74,239,89,135]},"announce":[],"urlList":[]}}